<svg width="24" height="24" viewBox="0 0 24 24" fill="none" xmlns="http://www.w3.org/2000/svg">
<g clip-path="url(#clip0_37_6896)">
<path d="M22.5 10.75L22.572 10.7535C22.733 10.7691 22.8847 10.8363 23.0043 10.9452C23.124 11.0541 23.2053 11.1987 23.236 11.3575L23.246 11.428L23.2495 11.5V12C23.2495 18.0895 18.411 23.049 12.369 23.244L12.1855 23.2485L12 23.25L11.784 23.248C10.2197 23.2181 8.67858 22.8637 7.25836 22.2071C5.83814 21.5506 4.56974 20.6063 3.5335 19.434L3.392 19.271L3.25 19.1015V20C3.25004 20.1742 3.18943 20.343 3.07857 20.4774C2.96772 20.6118 2.81354 20.7034 2.6425 20.7365L2.572 20.7465L2.5 20.75C2.32579 20.75 2.157 20.6894 2.0226 20.5786C1.88821 20.4677 1.7966 20.3135 1.7635 20.1425L1.7535 20.072L1.75 20V17C1.75 16.9015 1.769 16.807 1.8035 16.721L1.8325 16.658L1.8665 16.5985L1.9 16.55L1.944 16.497L1.991 16.4495L2.0315 16.4145L2.0825 16.377L2.142 16.341L2.2205 16.304L2.288 16.2805L2.382 16.259L2.448 16.2515L2.48 16.25H5.5C5.68667 16.2498 5.8667 16.3192 6.00492 16.4447C6.14314 16.5701 6.22961 16.7426 6.24742 16.9284C6.26523 17.1142 6.21311 17.3 6.10125 17.4495C5.98938 17.5989 5.82581 17.7012 5.6425 17.7365L5.572 17.7465L5.5 17.75H4.0825L4.4145 18.1555C6.1895 20.325 8.8035 21.6255 11.5915 21.7415L11.796 21.748L12.001 21.75C17.271 21.75 21.565 17.5685 21.745 12.3425L21.7495 12.1715L21.75 12V11.5C21.75 11.3136 21.8195 11.1338 21.9448 10.9958C22.0702 10.8578 22.2424 10.7714 22.428 10.7535L22.5 10.75ZM12.0005 0.75L12.215 0.752C15.066 0.808 17.7785 1.9765 19.7765 4.0025L19.9325 4.164L20.082 4.325L20.75 5.06V4C20.75 3.82579 20.8106 3.657 20.9214 3.5226C21.0323 3.38821 21.1865 3.2966 21.3575 3.2635L21.428 3.2535L21.5 3.25C21.6742 3.24996 21.843 3.31057 21.9774 3.42143C22.1118 3.53228 22.2034 3.68646 22.2365 3.8575L22.2465 3.928L22.25 4L22.249 7.0355L22.242 7.109L22.233 7.159L22.205 7.256L22.1765 7.3235L22.141 7.3895L22.092 7.4605L22.0505 7.509L22.0045 7.555L21.9785 7.5775L21.9225 7.62L21.8615 7.6575L21.798 7.6885L21.7375 7.7115L21.6635 7.732L21.609 7.742L21.5365 7.749L18.5 7.75C18.3133 7.75021 18.1333 7.6808 17.9951 7.55534C17.8569 7.42988 17.7704 7.25739 17.7526 7.07157C17.7348 6.88575 17.7869 6.69997 17.8988 6.55054C18.0106 6.40111 18.1742 6.29876 18.3575 6.2635L18.428 6.2535L18.5 6.25H19.8045L18.972 5.3345C17.2815 3.475 14.923 2.372 12.4235 2.26L12.209 2.253L12 2.25L11.8285 2.2515C6.637 2.341 2.4345 6.4885 2.256 11.6575L2.2515 11.8285L2.25 12V12.5C2.25021 12.6867 2.1808 12.8667 2.05534 13.0049C1.92988 13.1431 1.75739 13.2296 1.57157 13.2474C1.38575 13.2652 1.19997 13.2131 1.05054 13.1012C0.901105 12.9894 0.798757 12.8258 0.7635 12.6425L0.7535 12.572L0.75 12.5V12C0.75 5.9105 5.5885 0.951 11.6305 0.756L11.814 0.7515L12.0005 0.75Z" fill="#43A34C"/>
<mask id="path-2-outside-1_37_6896" maskUnits="userSpaceOnUse" x="6.09082" y="4.4541" width="12" height="15" fill="black">
<rect fill="white" x="6.09082" y="4.4541" width="12" height="15"/>
<path d="M13.5254 5.4541C13.9089 5.4541 14.241 5.7204 14.3242 6.09473L14.5059 6.91309C14.5191 6.97264 14.5254 7.03224 14.5254 7.09082H16.0908C16.5425 7.09082 16.9089 7.45654 16.9092 7.9082V8.72656C16.9092 9.17843 16.5427 9.54492 16.0908 9.54492H16.0596L15.5898 17.7734C15.5651 18.2065 15.2062 18.5449 14.7725 18.5449H9.22754C8.7938 18.5449 8.4349 18.2065 8.41016 17.7734L7.94043 9.54492H7.90918C7.45731 9.54492 7.09082 9.17843 7.09082 8.72656V7.9082C7.09106 7.45654 7.45746 7.09082 7.90918 7.09082H9.47461C9.47461 7.03114 9.4812 6.97134 9.49414 6.91309L9.67578 6.09473C9.759 5.72042 10.0912 5.4541 10.4746 5.4541H13.5254ZM9.22852 17.7266H14.7715L15.2256 9.54492H8.77344L9.22852 17.7266ZM10.2275 10.3633C10.4399 10.3634 10.6148 10.5073 10.6348 10.6914L10.6367 10.7266V16.5449C10.6367 16.7456 10.4533 16.908 10.2275 16.9082C10.0149 16.9082 9.84018 16.7644 9.82031 16.5801L9.81836 16.5449V10.7266C9.81852 10.5259 10.0017 10.3633 10.2275 10.3633ZM12 10.3633C12.2125 10.3633 12.3872 10.5072 12.4072 10.6914L12.4092 10.7266V16.5449C12.4092 16.7457 12.2259 16.9082 12 16.9082C11.7874 16.9082 11.6126 16.7645 11.5928 16.5801L11.5908 16.5449V10.7266C11.591 10.5259 11.7742 10.3633 12 10.3633ZM13.7725 10.3633C13.9849 10.3633 14.1596 10.5072 14.1797 10.6914L14.1816 10.7266V16.5449C14.1816 16.7458 13.9984 16.9082 13.7725 16.9082C13.5599 16.9081 13.3851 16.7644 13.3652 16.5801L13.3633 16.5449V10.7266C13.3634 10.5259 13.5467 10.3634 13.7725 10.3633ZM7.90918 8.72656H16.0908V7.9082H7.90918V8.72656ZM10.292 7.09082H13.707L13.5254 6.27246H10.4746L10.292 7.09082Z"/>
</mask>
<path d="M13.5254 5.4541C13.9089 5.4541 14.241 5.7204 14.3242 6.09473L14.5059 6.91309C14.5191 6.97264 14.5254 7.03224 14.5254 7.09082H16.0908C16.5425 7.09082 16.9089 7.45654 16.9092 7.9082V8.72656C16.9092 9.17843 16.5427 9.54492 16.0908 9.54492H16.0596L15.5898 17.7734C15.5651 18.2065 15.2062 18.5449 14.7725 18.5449H9.22754C8.7938 18.5449 8.4349 18.2065 8.41016 17.7734L7.94043 9.54492H7.90918C7.45731 9.54492 7.09082 9.17843 7.09082 8.72656V7.9082C7.09106 7.45654 7.45746 7.09082 7.90918 7.09082H9.47461C9.47461 7.03114 9.4812 6.97134 9.49414 6.91309L9.67578 6.09473C9.759 5.72042 10.0912 5.4541 10.4746 5.4541H13.5254ZM9.22852 17.7266H14.7715L15.2256 9.54492H8.77344L9.22852 17.7266ZM10.2275 10.3633C10.4399 10.3634 10.6148 10.5073 10.6348 10.6914L10.6367 10.7266V16.5449C10.6367 16.7456 10.4533 16.908 10.2275 16.9082C10.0149 16.9082 9.84018 16.7644 9.82031 16.5801L9.81836 16.5449V10.7266C9.81852 10.5259 10.0017 10.3633 10.2275 10.3633ZM12 10.3633C12.2125 10.3633 12.3872 10.5072 12.4072 10.6914L12.4092 10.7266V16.5449C12.4092 16.7457 12.2259 16.9082 12 16.9082C11.7874 16.9082 11.6126 16.7645 11.5928 16.5801L11.5908 16.5449V10.7266C11.591 10.5259 11.7742 10.3633 12 10.3633ZM13.7725 10.3633C13.9849 10.3633 14.1596 10.5072 14.1797 10.6914L14.1816 10.7266V16.5449C14.1816 16.7458 13.9984 16.9082 13.7725 16.9082C13.5599 16.9081 13.3851 16.7644 13.3652 16.5801L13.3633 16.5449V10.7266C13.3634 10.5259 13.5467 10.3634 13.7725 10.3633ZM7.90918 8.72656H16.0908V7.9082H7.90918V8.72656ZM10.292 7.09082H13.707L13.5254 6.27246H10.4746L10.292 7.09082Z" fill="#43A34C"/>
<path d="M14.3242 6.09473L14.5195 6.05139L14.5195 6.05133L14.3242 6.09473ZM14.5059 6.91309L14.3106 6.95642L14.3106 6.95645L14.5059 6.91309ZM14.5254 7.09082L14.3254 7.09095L14.3255 7.29082H14.5254V7.09082ZM16.9092 7.9082H17.1092V7.9081L16.9092 7.9082ZM16.0596 9.54492V9.34492H15.8707L15.8599 9.53352L16.0596 9.54492ZM15.5898 17.7734L15.7895 17.7848V17.7848L15.5898 17.7734ZM8.41016 17.7734L8.21048 17.7848L8.21048 17.7848L8.41016 17.7734ZM7.94043 9.54492L8.1401 9.53352L8.12934 9.34492H7.94043V9.54492ZM7.09082 7.9082L6.89082 7.9081V7.9082H7.09082ZM9.47461 7.09082V7.29082H9.67461V7.09082H9.47461ZM9.49414 6.91309L9.68938 6.95646L9.68939 6.95642L9.49414 6.91309ZM9.67578 6.09473L9.48055 6.05132L9.48053 6.05139L9.67578 6.09473ZM9.22852 17.7266L9.02882 17.7377L9.03933 17.9266H9.22852V17.7266ZM14.7715 17.7266V17.9266H14.9607L14.9712 17.7376L14.7715 17.7266ZM15.2256 9.54492L15.4253 9.55601L15.437 9.34492H15.2256V9.54492ZM8.77344 9.54492V9.34492H8.562L8.57375 9.55603L8.77344 9.54492ZM10.2275 10.3633L10.2277 10.1633H10.2275V10.3633ZM10.6348 10.6914L10.8347 10.6803L10.8336 10.6698L10.6348 10.6914ZM10.6367 10.7266H10.837L10.8364 10.7155L10.6367 10.7266ZM10.2275 16.9082V17.1082H10.2277L10.2275 16.9082ZM9.82031 16.5801L9.62035 16.5912L9.62146 16.6015L9.82031 16.5801ZM9.81836 16.5449H9.61805L9.61867 16.556L9.81836 16.5449ZM9.81836 10.7266L9.61836 10.7264V10.7266H9.81836ZM12 10.3633L12 10.1633H12V10.3633ZM12.4072 10.6914L12.6072 10.6803L12.6061 10.6698L12.4072 10.6914ZM12.4092 10.7266H12.6095L12.6089 10.7155L12.4092 10.7266ZM12 16.9082V17.1082H12L12 16.9082ZM11.5928 16.5801L11.3928 16.5912L11.3939 16.6015L11.5928 16.5801ZM11.5908 16.5449H11.3905L11.3911 16.556L11.5908 16.5449ZM11.5908 10.7266L11.3908 10.7264V10.7266H11.5908ZM13.7725 10.3633V10.1633H13.7724L13.7725 10.3633ZM14.1797 10.6914L14.3797 10.6803L14.3785 10.6698L14.1797 10.6914ZM14.1816 10.7266H14.3819L14.3813 10.7155L14.1816 10.7266ZM13.7725 16.9082L13.7724 17.1082H13.7725V16.9082ZM13.3652 16.5801L13.1653 16.5912L13.1664 16.6015L13.3652 16.5801ZM13.3633 16.5449H13.163L13.1636 16.556L13.3633 16.5449ZM13.3633 10.7266L13.1633 10.7264V10.7266H13.3633ZM7.90918 8.72656H7.70918V8.92656H7.90918V8.72656ZM16.0908 8.72656V8.92656H16.2908V8.72656H16.0908ZM16.0908 7.9082H16.2908V7.7082H16.0908V7.9082ZM7.90918 7.9082V7.7082H7.70918V7.9082H7.90918ZM10.292 7.09082L10.0968 7.04726L10.0424 7.29082H10.292V7.09082ZM13.707 7.09082V7.29082H13.9563L13.9023 7.04748L13.707 7.09082ZM13.5254 6.27246L13.7206 6.22912L13.6859 6.07246H13.5254V6.27246ZM10.4746 6.27246V6.07246H10.3143L10.2794 6.2289L10.4746 6.27246ZM13.5254 5.4541V5.6541C13.8152 5.6541 14.0661 5.85535 14.129 6.13812L14.3242 6.09473L14.5195 6.05133C14.4159 5.58545 14.0025 5.2541 13.5254 5.2541V5.4541ZM14.3242 6.09473L14.129 6.13806L14.3106 6.95642L14.5059 6.91309L14.7011 6.86975L14.5195 6.05139L14.3242 6.09473ZM14.5059 6.91309L14.3106 6.95645C14.3206 7.00146 14.3254 7.04655 14.3254 7.09095L14.5254 7.09082L14.7254 7.09069C14.7253 7.01793 14.7176 6.94382 14.7011 6.86972L14.5059 6.91309ZM14.5254 7.09082V7.29082H16.0908V7.09082V6.89082H14.5254V7.09082ZM16.0908 7.09082V7.29082C16.4323 7.29082 16.709 7.56722 16.7092 7.90831L16.9092 7.9082L17.1092 7.9081C17.1089 7.34585 16.6528 6.89082 16.0908 6.89082V7.09082ZM16.9092 7.9082H16.7092V8.72656H16.9092H17.1092V7.9082H16.9092ZM16.9092 8.72656H16.7092C16.7092 9.06797 16.4322 9.34492 16.0908 9.34492V9.54492V9.74492C16.6531 9.74492 17.1092 9.28889 17.1092 8.72656H16.9092ZM16.0908 9.54492V9.34492H16.0596V9.54492V9.74492H16.0908V9.54492ZM16.0596 9.54492L15.8599 9.53352L15.3902 17.762L15.5898 17.7734L15.7895 17.7848L16.2592 9.55632L16.0596 9.54492ZM15.5898 17.7734L15.3902 17.762C15.3715 18.089 15.1003 18.3449 14.7725 18.3449V18.5449V18.7449C15.312 18.7449 15.7587 18.3239 15.7895 17.7848L15.5898 17.7734ZM14.7725 18.5449V18.3449H9.22754V18.5449V18.7449H14.7725V18.5449ZM9.22754 18.5449V18.3449C8.89965 18.3449 8.62852 18.089 8.60983 17.762L8.41016 17.7734L8.21048 17.7848C8.24129 18.3239 8.68795 18.7449 9.22754 18.7449V18.5449ZM8.41016 17.7734L8.60983 17.762L8.1401 9.53352L7.94043 9.54492L7.74075 9.55632L8.21048 17.7848L8.41016 17.7734ZM7.94043 9.54492V9.34492H7.90918V9.54492V9.74492H7.94043V9.54492ZM7.90918 9.54492V9.34492C7.56777 9.34492 7.29082 9.06797 7.29082 8.72656H7.09082H6.89082C6.89082 9.28889 7.34685 9.74492 7.90918 9.74492V9.54492ZM7.09082 8.72656H7.29082V7.9082H7.09082H6.89082V8.72656H7.09082ZM7.09082 7.9082L7.29082 7.90831C7.291 7.56722 7.56771 7.29082 7.90918 7.29082V7.09082V6.89082C7.34721 6.89082 6.89112 7.34585 6.89082 7.9081L7.09082 7.9082ZM7.90918 7.09082V7.29082H9.47461V7.09082V6.89082H7.90918V7.09082ZM9.47461 7.09082H9.67461C9.67461 7.04579 9.67959 7.00054 9.68938 6.95646L9.49414 6.91309L9.2989 6.86971C9.28281 6.94215 9.27461 7.01649 9.27461 7.09082H9.47461ZM9.49414 6.91309L9.68939 6.95642L9.87103 6.13806L9.67578 6.09473L9.48053 6.05139L9.29889 6.86975L9.49414 6.91309ZM9.67578 6.09473L9.87101 6.13813C9.93388 5.85536 10.1848 5.6541 10.4746 5.6541V5.4541V5.2541C9.99746 5.2541 9.58412 5.58548 9.48055 6.05132L9.67578 6.09473ZM10.4746 5.4541V5.6541H13.5254V5.4541V5.2541H10.4746V5.4541ZM9.22852 17.7266V17.9266H14.7715V17.7266V17.5266H9.22852V17.7266ZM14.7715 17.7266L14.9712 17.7376L15.4253 9.55601L15.2256 9.54492L15.0259 9.53384L14.5718 17.7155L14.7715 17.7266ZM15.2256 9.54492V9.34492H8.77344V9.54492V9.74492H15.2256V9.54492ZM8.77344 9.54492L8.57375 9.55603L9.02882 17.7377L9.22852 17.7266L9.42821 17.7155L8.97313 9.53381L8.77344 9.54492ZM10.2275 10.3633L10.2274 10.5633C10.3562 10.5634 10.4288 10.6478 10.4359 10.713L10.6348 10.6914L10.8336 10.6698C10.8007 10.3668 10.5235 10.1635 10.2277 10.1633L10.2275 10.3633ZM10.6348 10.6914L10.4351 10.7025L10.437 10.7377L10.6367 10.7266L10.8364 10.7155L10.8345 10.6803L10.6348 10.6914ZM10.6367 10.7266H10.4367V16.5449H10.6367H10.8367V10.7266H10.6367ZM10.6367 16.5449H10.4367C10.4367 16.6133 10.3661 16.7081 10.2274 16.7082L10.2275 16.9082L10.2277 17.1082C10.5405 17.108 10.8367 16.878 10.8367 16.5449H10.6367ZM10.2275 16.9082V16.7082C10.0985 16.7082 10.0262 16.624 10.0192 16.5587L9.82031 16.5801L9.62146 16.6015C9.65416 16.9049 9.93133 17.1082 10.2275 17.1082V16.9082ZM9.82031 16.5801L10.02 16.569L10.0181 16.5338L9.81836 16.5449L9.61867 16.556L9.62062 16.5912L9.82031 16.5801ZM9.81836 16.5449H10.0184V10.7266H9.81836H9.61836V16.5449H9.81836ZM9.81836 10.7266L10.0184 10.7267C10.0184 10.658 10.0892 10.5633 10.2275 10.5633V10.3633V10.1633C9.9142 10.1633 9.61863 10.3937 9.61836 10.7264L9.81836 10.7266ZM12 10.3633L12 10.5633C12.1287 10.5633 12.2013 10.6476 12.2084 10.713L12.4072 10.6914L12.6061 10.6698C12.5731 10.3669 12.2962 10.1633 12 10.1633L12 10.3633ZM12.4072 10.6914L12.2075 10.7025L12.2095 10.7377L12.4092 10.7266L12.6089 10.7155L12.6069 10.6803L12.4072 10.6914ZM12.4092 10.7266H12.2092V16.5449H12.4092H12.6092V10.7266H12.4092ZM12.4092 16.5449H12.2092C12.2092 16.6135 12.1386 16.7082 12 16.7082L12 16.9082L12 17.1082C12.3132 17.1081 12.6092 16.878 12.6092 16.5449H12.4092ZM12 16.9082V16.7082C11.871 16.7082 11.7987 16.624 11.7916 16.5587L11.5928 16.5801L11.3939 16.6015C11.4266 16.9049 11.7038 17.1082 12 17.1082V16.9082ZM11.5928 16.5801L11.7925 16.569L11.7905 16.5338L11.5908 16.5449L11.3911 16.556L11.3931 16.5912L11.5928 16.5801ZM11.5908 16.5449H11.7908V10.7266H11.5908H11.3908V16.5449H11.5908ZM11.5908 10.7266L11.7908 10.7267C11.7909 10.658 11.8617 10.5633 12 10.5633V10.3633V10.1633C11.6867 10.1633 11.3911 10.3937 11.3908 10.7264L11.5908 10.7266ZM13.7725 10.3633V10.5633C13.9011 10.5633 13.9737 10.6475 13.9809 10.713L14.1797 10.6914L14.3785 10.6698C14.3456 10.3669 14.0687 10.1633 13.7725 10.1633V10.3633ZM14.1797 10.6914L13.98 10.7025L13.9819 10.7377L14.1816 10.7266L14.3813 10.7155L14.3794 10.6803L14.1797 10.6914ZM14.1816 10.7266H13.9816V16.5449H14.1816H14.3816V10.7266H14.1816ZM14.1816 16.5449H13.9816C13.9816 16.6135 13.9111 16.7082 13.7725 16.7082V16.9082V17.1082C14.0857 17.1082 14.3816 16.878 14.3816 16.5449H14.1816ZM13.7725 16.9082L13.7725 16.7082C13.6434 16.7082 13.5711 16.6239 13.5641 16.5587L13.3652 16.5801L13.1664 16.6015C13.199 16.905 13.4764 17.1081 13.7724 17.1082L13.7725 16.9082ZM13.3652 16.5801L13.5649 16.569L13.563 16.5338L13.3633 16.5449L13.1636 16.556L13.1655 16.5912L13.3652 16.5801ZM13.3633 16.5449H13.5633V10.7266H13.3633H13.1633V16.5449H13.3633ZM13.3633 10.7266L13.5633 10.7267C13.5633 10.6581 13.6342 10.5633 13.7725 10.5633L13.7725 10.3633L13.7724 10.1633C13.4593 10.1634 13.1635 10.3937 13.1633 10.7264L13.3633 10.7266ZM7.90918 8.72656V8.92656H16.0908V8.72656V8.52656H7.90918V8.72656ZM16.0908 8.72656H16.2908V7.9082H16.0908H15.8908V8.72656H16.0908ZM16.0908 7.9082V7.7082H7.90918V7.9082V8.1082H16.0908V7.9082ZM7.90918 7.9082H7.70918V8.72656H7.90918H8.10918V7.9082H7.90918ZM10.292 7.09082V7.29082H13.707V7.09082V6.89082H10.292V7.09082ZM13.707 7.09082L13.9023 7.04748L13.7206 6.22912L13.5254 6.27246L13.3301 6.3158L13.5118 7.13416L13.707 7.09082ZM13.5254 6.27246V6.07246H10.4746V6.27246V6.47246H13.5254V6.27246ZM10.4746 6.27246L10.2794 6.2289L10.0968 7.04726L10.292 7.09082L10.4872 7.13438L10.6698 6.31602L10.4746 6.27246Z" fill="#43A34C" mask="url(#path-2-outside-1_37_6896)"/>
</g>
<defs>
<clipPath id="clip0_37_6896">
<rect width="24" height="24" fill="white"/>
</clipPath>
</defs>
</svg>
